<svg width="32" height="36" viewBox="0 0 32 36" fill="none" xmlns="http://www.w3.org/2000/svg">
<g filter="url(#filter0_ii_4_345)">
<path d="M1.05786 0.718725C0.663644 1.1376 0.430633 1.78768 0.430633 2.62952V32.7071C0.430633 33.5503 0.663644 34.199 1.05786 34.6179L1.15811 34.7158L17.9416 17.8669V17.6683V17.4698L1.15811 0.619446L1.05786 0.718725Z" fill="url(#paint0_linear_4_345)"/>
<path d="M23.5347 23.4844L17.9411 17.8663V17.6677V17.4692L23.536 11.8524L23.662 11.9245L30.2906 15.7053C32.1831 16.7851 32.1831 18.5517 30.2906 19.6329L23.662 23.4137L23.5347 23.4844Z" fill="url(#paint1_linear_4_345)"/>
<g filter="url(#filter1_i_4_345)">
<path d="M23.6614 23.4131L17.9391 17.6685L1.05676 34.618C1.67993 35.2817 2.71086 35.3633 3.87184 34.7024L23.6614 23.4131Z" fill="url(#paint2_linear_4_345)"/>
</g>
<path d="M23.6614 11.924L3.87184 0.636015C2.71086 -0.0263015 1.67993 0.0566584 1.05676 0.720335L17.9405 17.6699L23.6614 11.924Z" fill="url(#paint3_linear_4_345)"/>
</g>
<defs>
<filter id="filter0_ii_4_345" x="0.430634" y="0.178955" width="31.2793" height="34.9799" filterUnits="userSpaceOnUse" color-interpolation-filters="sRGB">
<feFlood flood-opacity="0" result="BackgroundImageFix"/>
<feBlend mode="normal" in="SourceGraphic" in2="BackgroundImageFix" result="shape"/>
<feColorMatrix in="SourceAlpha" type="matrix" values="0 0 0 0 0 0 0 0 0 0 0 0 0 0 0 0 0 0 127 0" result="hardAlpha"/>
<feOffset dy="-0.203999"/>
<feComposite in2="hardAlpha" operator="arithmetic" k2="-1" k3="1"/>
<feColorMatrix type="matrix" values="0 0 0 0 0 0 0 0 0 0 0 0 0 0 0 0 0 0 0.12 0"/>
<feBlend mode="normal" in2="shape" result="effect1_innerShadow_4_345"/>
<feColorMatrix in="SourceAlpha" type="matrix" values="0 0 0 0 0 0 0 0 0 0 0 0 0 0 0 0 0 0 127 0" result="hardAlpha"/>
<feOffset dy="0.203999"/>
<feComposite in2="hardAlpha" operator="arithmetic" k2="-1" k3="1"/>
<feColorMatrix type="matrix" values="0 0 0 0 1 0 0 0 0 1 0 0 0 0 1 0 0 0 0.25 0"/>
<feBlend mode="normal" in2="effect1_innerShadow_4_345" result="effect2_innerShadow_4_345"/>
</filter>
<filter id="filter1_i_4_345" x="1.05676" y="17.6685" width="22.6046" height="17.4904" filterUnits="userSpaceOnUse" color-interpolation-filters="sRGB">
<feFlood flood-opacity="0" result="BackgroundImageFix"/>
<feBlend mode="normal" in="SourceGraphic" in2="BackgroundImageFix" result="shape"/>
<feColorMatrix in="SourceAlpha" type="matrix" values="0 0 0 0 0 0 0 0 0 0 0 0 0 0 0 0 0 0 127 0" result="hardAlpha"/>
<feOffset dy="-0.203999"/>
<feComposite in2="hardAlpha" operator="arithmetic" k2="-1" k3="1"/>
<feColorMatrix type="matrix" values="0 0 0 0 0 0 0 0 0 0 0 0 0 0 0 0 0 0 0.08 0"/>
<feBlend mode="normal" in2="shape" result="effect1_innerShadow_4_345"/>
</filter>
<linearGradient id="paint0_linear_4_345" x1="16.4538" y1="2.31128" x2="-6.36941" y2="25.0458" gradientUnits="userSpaceOnUse">
<stop stop-color="#00A0FF"/>
<stop offset="0.0066" stop-color="#00A1FF"/>
<stop offset="0.2601" stop-color="#00BEFF"/>
<stop offset="0.5122" stop-color="#00D2FF"/>
<stop offset="0.7604" stop-color="#00DFFF"/>
<stop offset="1" stop-color="#00E3FF"/>
</linearGradient>
<linearGradient id="paint1_linear_4_345" x1="32.7541" y1="17.6677" x2="-0.0241868" y2="17.6677" gradientUnits="userSpaceOnUse">
<stop stop-color="#FFE000"/>
<stop offset="0.4087" stop-color="#FFBD00"/>
<stop offset="0.7754" stop-color="#FFA500"/>
<stop offset="1" stop-color="#FF9C00"/>
</linearGradient>
<linearGradient id="paint2_linear_4_345" x1="20.5538" y1="20.7881" x2="-10.3973" y2="51.619" gradientUnits="userSpaceOnUse">
<stop stop-color="#FF3A44"/>
<stop offset="1" stop-color="#C31162"/>
</linearGradient>
<linearGradient id="paint3_linear_4_345" x1="-3.19512" y1="-9.2922" x2="10.6254" y2="4.47461" gradientUnits="userSpaceOnUse">
<stop stop-color="#32A071"/>
<stop offset="0.0685" stop-color="#2DA771"/>
<stop offset="0.4762" stop-color="#15CF74"/>
<stop offset="0.8009" stop-color="#06E775"/>
<stop offset="1" stop-color="#00F076"/>
</linearGradient>
</defs>
</svg>
